<svg width="" height="" viewBox="0 0 24 24" fill="" xmlns="http://www.w3.org/2000/svg">
<g clip-path="url(#clip0_1288_10029)">
<path d="M3.45841 14.8365L0.064905 22.9039C-0.212552 23.5638 0.449076 24.2237 1.1107 23.9469L16.0293 17.7101C16.7336 17.4121 16.9151 16.4968 16.3708 15.9647L8.18585 7.80149C7.58825 7.20548 6.57447 7.4077 6.25432 8.18464L3.44774 14.8472L3.45841 14.8365ZM4.88838 20.8073V15.1239L6.47842 11.3563V20.1474L4.88838 20.8073ZM14.9835 16.582L13.9484 17.0183V15.5496L14.9835 16.5926V16.582ZM12.5078 14.1128V17.6144L10.9177 18.2742V12.527L12.5078 14.1128ZM9.48776 11.1008V18.8809L7.89772 19.5407V9.52566L9.48776 11.1115V11.1008ZM1.98576 22.0206L3.45841 18.5297V21.4033L1.98576 22.0206Z" fill=""/>
<path d="M12.7206 8.51519C13.9478 8.51519 14.9509 7.51474 14.9509 6.2908C14.9509 5.06685 13.9478 4.06641 12.7206 4.06641C11.4933 4.06641 10.4902 5.06685 10.4902 6.2908C10.4902 7.51474 11.4933 8.51519 12.7206 8.51519ZM11.9309 6.2908C11.9309 5.85443 12.283 5.50321 12.7206 5.50321C13.1581 5.50321 13.5102 5.85443 13.5102 6.2908C13.5102 6.72716 13.1581 7.07838 12.7206 7.07838C12.283 7.07838 11.9309 6.72716 11.9309 6.2908Z" fill=""/>
<path d="M21.7811 4.50259C23.0083 4.50259 24.0114 3.50215 24.0114 2.2782C24.0114 1.05425 23.0083 0.0644531 21.7811 0.0644531C20.5539 0.0644531 19.5508 1.0649 19.5508 2.28884C19.5508 3.51279 20.5539 4.51323 21.7811 4.51323V4.50259ZM20.9914 2.2782C20.9914 1.84184 21.3436 1.49062 21.7811 1.49062C22.2186 1.49062 22.5708 1.84184 22.5708 2.2782C22.5708 2.71456 22.2186 3.06578 21.7811 3.06578C21.3436 3.06578 20.9914 2.71456 20.9914 2.2782Z" fill=""/>
<path d="M17.043 10.3123C17.043 11.5362 18.0461 12.5367 19.2733 12.5367C20.5005 12.5367 21.5036 11.5362 21.5036 10.3123C21.5036 9.08833 20.5005 8.08789 19.2733 8.08789C18.0461 8.08789 17.043 9.08833 17.043 10.3123ZM18.4729 10.3123C18.4729 9.87592 18.8251 9.5247 19.2626 9.5247C19.7001 9.5247 20.0523 9.87592 20.0523 10.3123C20.0523 10.7486 19.7001 11.0999 19.2626 11.0999C18.8251 11.0999 18.4729 10.7486 18.4729 10.3123Z" fill=""/>
<path d="M20.4042 13.6133C19.1237 13.6133 17.9178 14.1135 17.0107 15.0182L16.8613 15.1672L17.8751 16.1782L18.0245 16.0292C19.3371 14.7202 21.4714 14.7202 22.784 16.0292L22.9334 16.1782L23.9471 15.1672L23.7977 15.0182C22.8907 14.1135 21.6848 13.6133 20.4042 13.6133Z" fill=""/>
<path d="M7.5332 5.43998L8.54699 6.45106L8.69639 6.30206C9.4007 5.59962 9.78487 4.66304 9.78487 3.67324C9.78487 2.68344 9.4007 1.74685 8.69639 1.03377L8.54699 0.884766L7.5332 1.89585L7.6826 2.04485C8.579 2.93887 8.579 4.39696 7.6826 5.29097L7.5332 5.43998Z" fill=""/>
<path d="M16.0918 6.32195L17.1056 7.33304L17.255 7.18404C19.1972 5.24701 19.1972 2.08603 17.255 0.149002L17.1056 0L16.0918 1.01109L16.2412 1.16009C17.6285 2.54368 17.6285 4.78936 16.2412 6.17295L16.0918 6.32195Z" fill=""/>
<path d="M14.4378 9.59961H13.0078V11.0258H14.4378V9.59961Z" fill=""/>
<path d="M22.4944 5.58789H21.0645V7.01405H22.4944V5.58789Z" fill=""/>
<path d="M12.4319 1.06445H11.002V2.49062H12.4319V1.06445Z" fill=""/>
</g>
<defs>
<clipPath id="clip0_1288_10029">
<rect width="24" height="24" fill="white"/>
</clipPath>
</defs>
</svg>
