<svg width="" height="" viewBox="0 0 24 24" fill="" xmlns="http://www.w3.org/2000/svg">
<path fill-rule="evenodd" clip-rule="evenodd" d="M0.477175 5.09231C-0.119151 5.3266 -0.152526 5.90399 0.40199 6.39127C0.412865 6.40076 1.4603 6.4319 2.72955 6.46037L5.03733 6.51206L4.37969 8.74192L3.72205 10.9718L3.43125 11.0321C2.50746 11.2237 1.49658 12.0603 1.04482 13.0073C0.81251 13.4943 0.801822 13.5921 0.768542 15.5232L0.733949 17.5323L0.491706 17.6227C-0.170525 17.8702 -0.1619 18.6507 0.505862 18.9002C0.862196 19.0333 23.1369 19.0333 23.4933 18.9002C24.1689 18.6477 24.1689 17.8699 23.4933 17.6175C23.3443 17.5619 22.3665 17.5213 21.1573 17.5208L19.0775 17.5197L19.6842 17.1878C21.9268 15.9612 23.4115 14.3569 23.856 12.6801C24.0296 12.0247 24.0358 11.45 23.8714 11.2374C23.6755 10.984 23.2894 10.8883 22.4627 10.8883H21.6883L21.1798 10.2684C20.9 9.92747 20.2493 9.23298 19.7337 8.72496C17.5158 6.53997 15.2638 5.3184 13.0268 5.08688C11.8765 4.96775 0.78176 4.97263 0.477175 5.09231ZM13.8141 6.61239C14.4696 6.77896 15.486 7.22304 16.1617 7.638L16.6207 7.91992L15.4917 7.95299C14.5434 7.98082 14.3313 8.01426 14.1656 8.16167C13.8974 8.4002 13.8973 8.95391 14.1654 9.19262C14.3442 9.35183 14.5524 9.3709 16.4004 9.39743L18.4384 9.42682L19.1776 10.1575L19.9168 10.8883H12.5724C5.62325 10.8883 5.23026 10.8796 5.27226 10.7271C5.29663 10.6384 5.58387 9.64342 5.91058 8.51592L6.50457 6.46599H9.87132C12.6435 6.46599 13.3398 6.49188 13.8141 6.61239ZM8.10905 8.00164C7.76959 8.09147 7.59344 8.32217 7.59344 8.67715C7.59344 9.28107 7.79416 9.36813 9.18715 9.36813C10.5801 9.36813 10.7809 9.28107 10.7809 8.67715C10.7809 8.09626 10.5645 7.98985 9.34174 7.96949C8.76688 7.9599 8.21217 7.97437 8.10905 8.00164ZM22.4481 12.5697C21.8835 14.4041 19.1621 16.2973 15.7616 17.2212L14.8589 17.4665L8.50748 17.4983L2.1561 17.5302V15.7725C2.1561 13.8922 2.20156 13.651 2.6703 13.047C2.79517 12.8861 3.07866 12.6663 3.30019 12.5585C3.70283 12.3626 3.70508 12.3626 13.1074 12.3625L22.5119 12.3624L22.4481 12.5697ZM3.9987 14.4657C3.78899 14.6933 3.79827 15.2418 4.01501 15.4345C4.24666 15.6406 4.80474 15.6315 5.00086 15.4185C5.21057 15.1908 5.20129 14.6424 4.98455 14.4496C4.7529 14.2436 4.19482 14.2527 3.9987 14.4657ZM6.99862 14.4657C6.7889 14.6933 6.79818 15.2418 7.01493 15.4345C7.24658 15.6406 7.80466 15.6315 8.00077 15.4185C8.21049 15.1908 8.20121 14.6424 7.98446 14.4496C7.75281 14.2436 7.19473 14.2527 6.99862 14.4657ZM9.99853 14.4657C9.78882 14.6933 9.7981 15.2418 10.0148 15.4345C10.2465 15.6406 10.8046 15.6315 11.0007 15.4185C11.2104 15.1908 11.2011 14.6424 10.9844 14.4496C10.7527 14.2436 10.1946 14.2527 9.99853 14.4657Z" fill=""/>
</svg>
