<svg  viewBox="0 0 79 79" fill="none" xmlns="http://www.w3.org/2000/svg">
<path d="M45.7043 37.6129C46.0091 36.4092 45.996 35.1469 45.6663 33.9497C45.3367 32.7526 44.7017 31.6615 43.8237 30.7835C42.9457 29.9055 41.8546 29.2705 40.6575 28.9409C39.4603 28.6112 38.198 28.5981 36.9943 28.9029C34.4918 29.5204 32.4443 31.5679 31.8268 34.0704C31.522 35.2742 31.535 36.5365 31.8647 37.7336C32.1943 38.9308 32.8293 40.0218 33.7073 40.8999C34.5854 41.7779 35.6764 42.4129 36.8736 42.7425C38.0707 43.0722 39.333 43.0852 40.5368 42.7804C43.0718 42.1629 45.1193 40.1154 45.7043 37.6129Z" stroke="url(#paint0_linear_531_5242)" stroke-width="3" stroke-linecap="round" stroke-linejoin="round"/>
<path d="M58.3148 56.6253C61.17 53.9658 63.446 50.746 65.0005 47.1671C66.5551 43.5883 67.3549 39.7272 67.3498 35.8253C67.3498 32.0738 66.6109 28.359 65.1753 24.893C63.7396 21.427 61.6354 18.2778 58.9826 15.625C56.3299 12.9723 53.1806 10.868 49.7147 9.43238C46.2487 7.99673 42.5339 7.25781 38.7823 7.25781C35.0308 7.25781 31.316 7.99673 27.85 9.43238C24.3841 10.868 21.2348 12.9723 18.5821 15.625C15.9293 18.2778 13.8251 21.427 12.3894 24.893C10.9538 28.359 10.2148 32.0738 10.2148 35.8253C10.2148 44.0803 13.7248 51.5228 19.3473 56.7228" stroke="url(#paint1_linear_531_5242)" stroke-width="3" stroke-linecap="round" stroke-linejoin="round"/>
<path d="M25.782 48.0449C22.792 44.8599 20.9395 40.5699 20.9395 35.8249C20.9395 25.9774 28.9345 17.9824 38.782 17.9824C48.6295 17.9824 56.6245 25.9774 56.6245 35.8249C56.6245 40.5699 54.772 44.8274 51.782 48.0449M33.257 54.9024L28.577 60.7199C24.872 65.3674 28.1545 72.2249 34.102 72.2249H43.4295C49.377 72.2249 52.692 65.3349 48.9545 60.7199L44.2745 54.9024C41.4795 51.3599 36.0845 51.3599 33.257 54.9024V54.9024Z" stroke="url(#paint2_linear_531_5242)" stroke-width="3" stroke-linecap="round" stroke-linejoin="round"/>
<defs>
<linearGradient id="paint0_linear_531_5242" x1="45.5722" y1="43.3746" x2="32.4222" y2="43.0711" gradientUnits="userSpaceOnUse">
<stop stop-color="#8E4DEE"/>
<stop offset="1" stop-color="#E515DD"/>
</linearGradient>
<linearGradient id="paint1_linear_531_5242" x1="65.9474" y1="58.0178" x2="13.4759" y2="56.6189" gradientUnits="userSpaceOnUse">
<stop stop-color="#8E4DEE"/>
<stop offset="1" stop-color="#E515DD"/>
</linearGradient>
<linearGradient id="paint2_linear_531_5242" x1="55.7485" y1="73.645" x2="22.9605" y2="73.1472" gradientUnits="userSpaceOnUse">
<stop stop-color="#8E4DEE"/>
<stop offset="1" stop-color="#E515DD"/>
</linearGradient>
</defs>
</svg>
