<svg width="" height="" viewBox="0 0 24 24" fill="" xmlns="http://www.w3.org/2000/svg">
<path d="M20.9943 17.475C21.4648 17.7083 21.8612 17.6333 22.1835 17.25C22.5059 16.8667 22.5451 16.4667 22.3011 16.05L20.4455 12.7L19.0341 16.375L20.9943 17.475ZM15.4534 16.425H17.283L19.8182 10.375C19.9227 10.1417 19.9619 9.9125 19.9358 9.6875C19.9097 9.4625 19.7659 9.29167 19.5045 9.175L17.3352 8.275C17.0913 8.15833 16.8473 8.15833 16.6034 8.275C16.3595 8.39167 16.2288 8.56667 16.2114 8.8L15.4534 16.425ZM7.71705 16.425H9.52045L8.78864 8.8C8.77121 8.55 8.6536 8.36667 8.4358 8.25C8.21799 8.13333 7.96098 8.14167 7.66477 8.275L5.6 9.125C5.37348 9.20833 5.24716 9.39583 5.22102 9.6875C5.19489 9.97917 5.22538 10.2417 5.3125 10.475L7.71705 16.425ZM4.00568 17.475L5.96591 16.375L4.55455 12.7L2.69886 16.175C2.45492 16.6417 2.5072 17.0208 2.85568 17.3125C3.20417 17.6042 3.5875 17.6583 4.00568 17.475ZM11.0886 16.425H13.8852L14.7477 7.325C14.7826 7.09167 14.7172 6.89583 14.5517 6.7375C14.3862 6.57917 14.1814 6.5 13.9375 6.5H11.0625C10.7837 6.5 10.5746 6.57917 10.4352 6.7375C10.2958 6.89583 10.2348 7.09167 10.2523 7.325L11.0886 16.425ZM3.43068 19C2.80341 19 2.24148 18.7792 1.74489 18.3375C1.2483 17.8958 1 17.325 1 16.625C1 16.4083 1.0392 16.2083 1.11761 16.025C1.19602 15.8417 1.27879 15.6583 1.36591 15.475L3.77045 11C3.47424 10.25 3.44375 9.575 3.67898 8.975C3.9142 8.375 4.33674 7.95 4.94659 7.7L7.11591 6.85C7.41212 6.73333 7.69962 6.675 7.97841 6.675C8.2572 6.675 8.51856 6.74167 8.7625 6.875C8.90189 6.29167 9.18068 5.83333 9.59886 5.5C10.017 5.16667 10.5049 5 11.0625 5H13.9375C14.4951 5 14.983 5.15 15.4011 5.45C15.8193 5.75 16.0981 6.19167 16.2375 6.775C16.4292 6.69167 16.6775 6.65417 16.9824 6.6625C17.2873 6.67083 17.5792 6.73333 17.858 6.85L20.0534 7.7C20.6807 7.93333 21.1163 8.35417 21.3602 8.9625C21.6042 9.57083 21.5606 10.2 21.2295 10.85L23.6341 15.45C23.6864 15.6 23.7604 15.775 23.8562 15.975C23.9521 16.175 24 16.3583 24 16.525C24 17.375 23.6951 18 23.0852 18.4C22.4754 18.8 21.8917 19 21.3341 19C21.1773 19 21.0117 18.9667 20.8375 18.9C20.6633 18.8333 20.4803 18.7583 20.2886 18.675L18.6943 17.925H6.27955L4.76364 18.675C4.58939 18.7583 4.38902 18.8333 4.1625 18.9C3.93598 18.9667 3.69205 19 3.43068 19Z" fill=""/>
</svg>
