<svg width="" height="" viewBox="0 0 24 24" fill="" xmlns="http://www.w3.org/2000/svg">
<path d="M19.475 7.275C19.7083 7.275 19.9042 7.1875 20.0625 7.0125C20.2208 6.8375 20.3 6.64167 20.3 6.425C20.3 6.19167 20.2208 5.99583 20.0625 5.8375C19.9042 5.67917 19.7083 5.6 19.475 5.6C19.2417 5.6 19.0458 5.67917 18.8875 5.8375C18.7292 5.99583 18.65 6.2 18.65 6.45C18.65 6.65 18.7292 6.8375 18.8875 7.0125C19.0458 7.1875 19.2417 7.275 19.475 7.275ZM15.175 7.275C15.4083 7.275 15.6042 7.1875 15.7625 7.0125C15.9208 6.8375 16 6.64167 16 6.425C16 6.19167 15.9208 5.99583 15.7625 5.8375C15.6042 5.67917 15.4083 5.6 15.175 5.6C14.9417 5.6 14.7458 5.67917 14.5875 5.8375C14.4292 5.99583 14.35 6.2 14.35 6.45C14.35 6.65 14.4292 6.8375 14.5875 7.0125C14.7458 7.1875 14.9417 7.275 15.175 7.275ZM14.625 10.875H19.975C19.975 10.325 19.7 9.89583 19.15 9.5875C18.6 9.27917 17.9833 9.125 17.3 9.125C16.6167 9.125 16 9.27917 15.45 9.5875C14.9 9.89583 14.625 10.325 14.625 10.875ZM7 22.525C5.33333 22.525 3.91667 21.9292 2.75 20.7375C1.58333 19.5458 1 18.15 1 16.55V9.725H13V16.55C13 18.15 12.4167 19.5458 11.25 20.7375C10.0833 21.9292 8.66667 22.525 7 22.525ZM7 20.9C8.2 20.9 9.225 20.4625 10.075 19.5875C10.925 18.7125 11.35 17.7 11.35 16.55V11.375H2.65V16.55C2.65 17.7 3.075 18.7125 3.925 19.5875C4.775 20.4625 5.8 20.9 7 20.9ZM17.3 14.8C16.75 14.8 16.2208 14.7333 15.7125 14.6C15.2042 14.4667 14.725 14.275 14.275 14.025V12.25C14.675 12.4667 15.1333 12.6708 15.65 12.8625C16.1667 13.0542 16.7167 13.15 17.3 13.15C18.5 13.15 19.525 12.75 20.375 11.95C21.225 11.15 21.65 10.175 21.65 9.025V3.625H12.875V8.5H11.225V2H23.3V9.025C23.3 10.625 22.7167 11.9875 21.55 13.1125C20.3833 14.2375 18.9667 14.8 17.3 14.8ZM4.875 14.8C5.10833 14.8 5.30417 14.7208 5.4625 14.5625C5.62083 14.4042 5.7 14.2083 5.7 13.975C5.7 13.725 5.62083 13.5208 5.4625 13.3625C5.30417 13.2042 5.10833 13.125 4.875 13.125C4.64167 13.125 4.44583 13.2042 4.2875 13.3625C4.12917 13.5208 4.05 13.725 4.05 13.975C4.05 14.2083 4.12917 14.4042 4.2875 14.5625C4.44583 14.7208 4.64167 14.8 4.875 14.8ZM9.2 14.8C9.43333 14.8 9.62917 14.7208 9.7875 14.5625C9.94583 14.4042 10.025 14.2083 10.025 13.975C10.025 13.725 9.94583 13.5208 9.7875 13.3625C9.62917 13.2042 9.43333 13.125 9.2 13.125C8.96667 13.125 8.77083 13.2042 8.6125 13.3625C8.45417 13.5208 8.375 13.725 8.375 13.975C8.375 14.2083 8.45417 14.4042 8.6125 14.5625C8.77083 14.7208 8.96667 14.8 9.2 14.8ZM7.075 18.65C7.75833 18.65 8.375 18.4958 8.925 18.1875C9.475 17.8792 9.75 17.45 9.75 16.9H4.4C4.4 17.45 4.675 17.8792 5.225 18.1875C5.775 18.4958 6.39167 18.65 7.075 18.65Z" fill=""/>
</svg>
