<svg width="" height="" viewBox="0 0 24 24" fill="" xmlns="http://www.w3.org/2000/svg">
<path d="M5.41667 20C5.03889 20 4.70833 19.8583 4.425 19.575C4.14167 19.2917 4 18.9611 4 18.5833V4.41667C4 4.05463 4.14167 3.72801 4.425 3.43681C4.70833 3.1456 5.03889 3 5.41667 3H19.5833C19.9454 3 20.272 3.1456 20.5632 3.43681C20.8544 3.72801 21 4.05463 21 4.41667V18.5833C21 18.9611 20.8544 19.2917 20.5632 19.575C20.272 19.8583 19.9454 20 19.5833 20H5.41667ZM5.41667 18.5833H9.12361V13.625H8.65139C8.44676 13.625 8.27755 13.5581 8.14375 13.4243C8.00995 13.2905 7.94306 13.1213 7.94306 12.9167V4.41667H5.41667V18.5833ZM15.8764 18.5833H19.5833V4.41667H17.0569V12.9167C17.0569 13.1213 16.99 13.2905 16.8562 13.4243C16.7225 13.5581 16.5532 13.625 16.3486 13.625H15.8764V18.5833ZM10.0681 18.5833H14.9319V13.625H14.4597C14.2551 13.625 14.0859 13.5581 13.9521 13.4243C13.8183 13.2905 13.7514 13.1213 13.7514 12.9167V4.41667H11.2486V12.9167C11.2486 13.1213 11.1817 13.2905 11.0479 13.4243C10.9141 13.5581 10.7449 13.625 10.5403 13.625H10.0681V18.5833Z" fill=""/>
</svg>
