<svg width="" height="" viewBox="0 0 24 24" fill="" xmlns="http://www.w3.org/2000/svg">
<path d="M3.60039 21.3496L1.90039 19.6496H22.1004L20.4004 21.3496H3.60039ZM3.12539 18.1246C3.24206 17.8246 3.36289 17.5496 3.48789 17.2996C3.61289 17.0496 3.79206 16.8079 4.02539 16.5746V8.52461H3.00039V7.19961H4.02539V6.34961H3.00039V5.02461H4.02539V4.17461H3.00039V2.84961H10.4754C10.8754 2.84961 11.1837 2.95794 11.4004 3.17461C11.6171 3.39128 11.7254 3.69961 11.7254 4.09961V5.02461H21.0754V6.34961H11.7254V7.27461C11.7254 7.67461 11.6171 7.98294 11.4004 8.19961C11.1837 8.41628 10.8754 8.52461 10.4754 8.52461H7.87539V15.2246C8.19206 15.2413 8.49622 15.3163 8.78789 15.4496C9.07956 15.5829 9.35872 15.7496 9.62539 15.9496C9.90872 14.8829 10.5212 13.9788 11.4629 13.2371C12.4046 12.4954 13.5254 12.1246 14.8254 12.1246C16.4087 12.1246 17.7004 12.6413 18.7004 13.6746C19.7004 14.7079 20.2087 16.0079 20.2254 17.5746V18.1246H3.12539ZM11.3754 16.3996H18.2754C18.1254 15.6996 17.7296 15.0996 17.0879 14.5996C16.4462 14.0996 15.6921 13.8496 14.8254 13.8496C13.9587 13.8496 13.2046 14.0996 12.5629 14.5996C11.9212 15.0996 11.5254 15.6996 11.3754 16.3996ZM7.87539 5.02461H10.4004V4.17461H7.87539V5.02461ZM7.87539 7.19961H10.4004V6.34961H7.87539V7.19961ZM5.25039 5.02461H6.62539V4.17461H5.25039V5.02461ZM5.25039 7.19961H6.62539V6.34961H5.25039V7.19961ZM5.25039 15.6996C5.38372 15.5996 5.58372 15.4954 5.85039 15.3871C6.11706 15.2788 6.37539 15.2163 6.62539 15.1996V8.52461H5.25039V15.6996ZM11.3754 16.3996C11.5254 16.3996 11.9212 16.3996 12.5629 16.3996C13.2046 16.3996 13.9587 16.3996 14.8254 16.3996C15.6921 16.3996 16.4462 16.3996 17.0879 16.3996C17.7296 16.3996 18.1254 16.3996 18.2754 16.3996H11.3754Z" fill=""/>
</svg>
