<svg width="" height="" viewBox="0 0 24 24" fill="" xmlns="http://www.w3.org/2000/svg">
<path d="M3.02273 21C3.37121 19.995 3.63636 18.9075 3.81818 17.7375C4 16.5675 4.11364 15.2775 4.15909 13.8675C3.52273 13.6725 3.00379 13.2825 2.60227 12.6975C2.20076 12.1125 2 11.46 2 10.74V9.39C3.74242 8.79 5.52273 7.90125 7.34091 6.72375C9.15909 5.54625 10.7121 4.305 12 3C13.2879 4.305 14.8409 5.54625 16.6591 6.72375C18.4773 7.90125 20.2576 8.79 22 9.39V10.74C22 11.46 21.803 12.1125 21.4091 12.6975C21.0152 13.2825 20.5 13.6725 19.8636 13.8675C19.8939 15.2175 20.0038 16.485 20.1932 17.67C20.3826 18.855 20.6515 19.965 21 21H3.02273ZM5.40909 9.39H18.5909C17.4848 8.835 16.3864 8.1825 15.2955 7.4325C14.2045 6.6825 13.1061 5.82 12 4.845C10.9545 5.775 9.87879 6.6225 8.77273 7.3875C7.66667 8.1525 6.54545 8.82 5.40909 9.39ZM14.3409 12.6525C14.8258 12.6525 15.2197 12.4612 15.5227 12.0787C15.8258 11.6962 15.9773 11.25 15.9773 10.74H12.6818C12.6818 11.25 12.8371 11.6962 13.1477 12.0787C13.4583 12.4612 13.8561 12.6525 14.3409 12.6525ZM9.68182 12.6525C10.1667 12.6525 10.5606 12.4612 10.8636 12.0787C11.1667 11.6962 11.3182 11.25 11.3182 10.74H8.02273C8.02273 11.25 8.17803 11.6962 8.48864 12.0787C8.79924 12.4612 9.19697 12.6525 9.68182 12.6525ZM5.02273 12.6525C5.50758 12.6525 5.90152 12.4612 6.20455 12.0787C6.50758 11.6962 6.65909 11.25 6.65909 10.74H3.36364C3.36364 11.25 3.51894 11.6962 3.82955 12.0787C4.14015 12.4612 4.53788 12.6525 5.02273 12.6525ZM4.84091 19.65H7.86364C7.98485 18.885 8.09091 18.0525 8.18182 17.1525C8.27273 16.2525 8.35606 15.135 8.43182 13.8C8.26515 13.725 8.07197 13.5938 7.85227 13.4062C7.63258 13.2188 7.48485 13.0425 7.40909 12.8775C7.15152 13.1775 6.86742 13.4175 6.55682 13.5975C6.24621 13.7775 5.90152 13.905 5.52273 13.98C5.47727 15.06 5.39773 16.0612 5.28409 16.9838C5.17045 17.9062 5.02273 18.795 4.84091 19.65ZM9.27273 19.65H14.75C14.6288 18.87 14.5303 18.03 14.4545 17.13C14.3788 16.23 14.3106 15.1725 14.25 13.9575C13.75 13.9275 13.2917 13.8037 12.875 13.5862C12.4583 13.3687 12.1439 13.0725 11.9318 12.6975C11.7197 13.0725 11.4242 13.3687 11.0455 13.5862C10.6667 13.8037 10.2424 13.9275 9.77273 13.9575C9.71212 14.9175 9.64773 15.87 9.57955 16.815C9.51136 17.76 9.40909 18.705 9.27273 19.65ZM16.1364 19.65H19.1818C18.9697 18.735 18.8106 17.8088 18.7045 16.8713C18.5985 15.9338 18.5303 14.97 18.5 13.98C18.1364 13.905 17.8144 13.7812 17.5341 13.6088C17.2538 13.4362 16.9848 13.1925 16.7273 12.8775C16.5758 13.0875 16.3939 13.275 16.1818 13.44C15.9697 13.605 15.7727 13.725 15.5909 13.8C15.6364 14.655 15.7008 15.5588 15.7841 16.5113C15.8674 17.4637 15.9848 18.51 16.1364 19.65ZM19 12.6525C19.4848 12.6525 19.8788 12.4612 20.1818 12.0787C20.4848 11.6962 20.6364 11.25 20.6364 10.74H17.3409C17.3409 11.25 17.4962 11.6962 17.8068 12.0787C18.1174 12.4612 18.5152 12.6525 19 12.6525Z" fill=""/>
</svg>
