<svg width="" height="" viewBox="0 0 28 24" fill="" xmlns="http://www.w3.org/2000/svg">
<g clip-path="url(#clip0_1285_10280)">
<path fill-rule="evenodd" clip-rule="evenodd" d="M13.75 1L18.44 4.84V2.98H22.41V8.09L27.58 12.32H22.41V22.6H17.76C17.4 22.6 17.11 22.31 17.11 21.95C17.11 21.59 17.4 21.3 17.76 21.3H21.11V11.02H23.94L13.77 2.7L3.52 11.47H6.41V21.3H9.76C10.12 21.3 10.41 21.59 10.41 21.95C10.41 22.31 10.12 22.6 9.76 22.6H5.11V12.77H0L13.75 1ZM21.11 7.03V4.29H19.74V5.91L21.11 7.03ZM19.22 8.12C19.51 8.33 19.57 8.74 19.35 9.03L18.7 9.9C18.86 10.16 18.94 10.46 18.94 10.79C18.94 11.74 18.17 12.51 17.22 12.51C17.13 12.51 17.04 12.51 16.96 12.49C16.96 12.49 16.95 12.51 16.94 12.52L16.38 13.27H19.21L14.41 18.64V22.21H15.09C15.45 22.21 15.74 22.5 15.74 22.86C15.74 23.22 15.45 23.51 15.09 23.51H11.98C11.62 23.51 11.33 23.22 11.33 22.86C11.33 22.5 11.62 22.21 11.98 22.21H13.11V18.64L8.31 13.27H14.77L15.85 11.82C15.64 11.53 15.51 11.18 15.51 10.79C15.51 9.84 16.28 9.07 17.23 9.07C17.38 9.07 17.52 9.09 17.66 9.13L18.31 8.26C18.52 7.97 18.93 7.91 19.22 8.13V8.12ZM13.76 17.41L16.31 14.57H11.22L13.77 17.41H13.76ZM17.23 10.37C17 10.37 16.81 10.56 16.81 10.79C16.81 11.02 17 11.21 17.23 11.21C17.46 11.21 17.65 11.02 17.65 10.79C17.65 10.56 17.46 10.37 17.23 10.37Z" fill=""/>
</g>
<defs>
<clipPath id="clip0_1285_10280">
<rect width="27.58" height="22.5" fill="white" transform="translate(0 1)"/>
</clipPath>
</defs>
</svg>
