<svg width="" height="" viewBox="0 0 24 24" fill="" xmlns="http://www.w3.org/2000/svg">
<path d="M4.5881 19.7143V18.1429H6.7881V12.8L1 4H14.1476L8.35952 12.8V18.1429H10.5595V19.7143H4.5881ZM5.19048 7.82381H9.95714L11.3976 5.57143H3.75L5.19048 7.82381ZM16.5833 19.7143C15.7103 19.7143 14.9901 19.4306 14.4226 18.8631C13.8552 18.2956 13.5714 17.5754 13.5714 16.7024C13.5714 15.8294 13.8552 15.1091 14.4226 14.5417C14.9901 13.9742 15.7103 13.6905 16.5833 13.6905C16.8452 13.6905 17.094 13.7167 17.3298 13.769C17.5655 13.8214 17.7968 13.8913 18.0238 13.9786V4H23V6.59286H19.5952V16.7024C19.5952 17.5754 19.3115 18.2956 18.744 18.8631C18.1766 19.4306 17.4564 19.7143 16.5833 19.7143Z" fill=""/>
</svg>
