<svg width="" height="" viewBox="0 0 24 24" fill="" xmlns="http://www.w3.org/2000/svg">
<path d="M17.7234 21.2276H7.2776C6.83038 21.2276 6.44705 21.0679 6.1276 20.7484C5.80816 20.429 5.64844 20.0457 5.64844 19.5984V3.4026C5.64844 2.95538 5.80816 2.57205 6.1276 2.2526C6.44705 1.93316 6.83038 1.77344 7.2776 1.77344H17.7234C18.1707 1.77344 18.554 1.93316 18.8734 2.2526C19.1929 2.57205 19.3526 2.95538 19.3526 3.4026V19.5984C19.3526 20.0457 19.1929 20.429 18.8734 20.7484C18.554 21.0679 18.1707 21.2276 17.7234 21.2276ZM17.7234 19.5984V3.4026H7.2776V19.5984H17.7234ZM12.5245 8.5776C13.0356 8.5776 13.4668 8.40191 13.8182 8.05052C14.1696 7.69913 14.3453 7.26788 14.3453 6.75677C14.3453 6.24566 14.1696 5.81441 13.8182 5.46302C13.4668 5.11163 13.0356 4.93594 12.5245 4.93594C12.0134 4.93594 11.5821 5.11163 11.2307 5.46302C10.8793 5.81441 10.7036 6.24566 10.7036 6.75677C10.7036 7.26788 10.8793 7.69913 11.2307 8.05052C11.5821 8.40191 12.0134 8.5776 12.5245 8.5776ZM12.5005 18.3047C13.6026 18.3047 14.533 17.9253 15.2917 17.1667C16.0503 16.408 16.4297 15.4776 16.4297 14.3755C16.4297 13.2734 16.0503 12.3431 15.2917 11.5844C14.533 10.8257 13.6026 10.4464 12.5005 10.4464C11.3984 10.4464 10.4681 10.8257 9.70937 11.5844C8.95069 12.3431 8.57135 13.2734 8.57135 14.3755C8.57135 15.4776 8.95069 16.408 9.70937 17.1667C10.4681 17.9253 11.3984 18.3047 12.5005 18.3047ZM12.5005 16.8672C11.8137 16.8672 11.2267 16.6236 10.7396 16.1365C10.2524 15.6493 10.0089 15.0623 10.0089 14.3755C10.0089 13.6887 10.2524 13.1017 10.7396 12.6146C11.2267 12.1274 11.8137 11.8839 12.5005 11.8839C13.1873 11.8839 13.7743 12.1274 14.2615 12.6146C14.7486 13.1017 14.9922 13.6887 14.9922 14.3755C14.9922 15.0623 14.7486 15.6493 14.2615 16.1365C13.7743 16.6236 13.1873 16.8672 12.5005 16.8672ZM7.2776 3.4026V19.5984V3.4026Z" fill=""/>
</svg>
