<svg width="" height="" viewBox="0 0 24 24" fill="" xmlns="http://www.w3.org/2000/svg">
<path fill-rule="evenodd" clip-rule="evenodd" d="M7.25 4.21566C2.619 7.40465 2.583 7.43425 2.53167 8.07445L2.47983 8.71965H6.90667H11.3333V12.3328V15.9459H9.16667H7V16.548V17.1502H9.16667H11.3333V19.4729V21.7956H10.4167H9.5V22.3978V23H12H14.5V22.3978V21.7956H13.5833H12.6667V19.4729V17.1502H14.8333H17V16.548V15.9459H14.8333H12.6667V12.3328V8.71965H17.0933H21.5202L21.4683 8.07445C21.417 7.43425 21.3805 7.40431 16.75 4.2136C14.1833 2.4449 12.0458 0.998796 12 1C11.9542 1.00121 9.81667 2.44817 7.25 4.21566ZM13.3872 5.36463L14.6597 7.51528H12H9.34033L10.6128 5.36463C11.3127 4.18177 11.9368 3.21397 12 3.21397C12.0632 3.21397 12.6873 4.18177 13.3872 5.36463ZM9.6345 4.55891C9.423 4.92004 8.95 5.73161 8.58333 6.36236L7.91667 7.50926L6.34717 7.51236C5.484 7.51391 4.83317 7.4573 4.90083 7.38624C5.02517 7.256 9.873 3.93281 9.96783 3.91285C9.99583 3.907 9.84583 4.19777 9.6345 4.55891ZM17.1667 6.01653C18.1292 6.67653 18.988 7.28353 19.075 7.36577C19.1657 7.45145 18.56 7.51408 17.6583 7.51236L16.0833 7.50926L15.4167 6.36236C15.05 5.73161 14.5735 4.91402 14.3578 4.54549L13.9657 3.87551L14.6912 4.34625C15.0902 4.60502 16.2042 5.35671 17.1667 6.01653ZM2 13.9672C2 14.481 2.05633 14.5694 2.38333 14.5694C3.13483 14.5694 3.16667 14.7494 3.16667 18.9912V23H3.83333H4.5V21.3655V19.731H5.75H7V21.3655V23H7.66667H8.33333V20.7633V18.5266H6.43067H4.52783L4.47233 16.4476L4.41667 14.3683L3.87233 13.8668C3.46417 13.4905 3.162 13.3651 2.664 13.3651C2.01617 13.3651 2 13.3799 2 13.9672ZM20.1277 13.8668L19.5833 14.3683L19.5277 16.4476L19.4722 18.5266H17.5693H15.6667V20.7633V23H16.3333H17V21.3655V19.731H18.25H19.5V21.3655V23H20.1667H20.8333V18.9912C20.8333 14.7494 20.8652 14.5694 21.6167 14.5694C21.9437 14.5694 22 14.481 22 13.9672C22 13.3799 21.9838 13.3651 21.336 13.3651C20.838 13.3651 20.5358 13.4905 20.1277 13.8668Z" fill=""/>
</svg>
