<svg width="" height="" viewBox="0 0 24 24" fill="" xmlns="http://www.w3.org/2000/svg">
<path d="M4.59375 12L6.55833 10L4.59375 7.95L2.67708 10L4.59375 12ZM18.3219 11.75L20.4062 8.25L22.5146 11.75H18.3219ZM1 16V14.675C1 14.025 1.33542 13.5 2.00625 13.1C2.67708 12.7 3.53958 12.5 4.59375 12.5C4.80139 12.5 4.99306 12.5042 5.16875 12.5125C5.34444 12.5208 5.52014 12.5417 5.69583 12.575C5.56806 12.8583 5.47222 13.1458 5.40833 13.4375C5.34444 13.7292 5.3125 14.0417 5.3125 14.375V16H1ZM6.75 16V14.375C6.75 13.2917 7.28108 12.4167 8.34323 11.75C9.40538 11.0833 10.791 10.75 12.5 10.75C14.225 10.75 15.6146 11.0833 16.6687 11.75C17.7229 12.4167 18.25 13.2917 18.25 14.375V16H6.75ZM19.6875 16V14.375C19.6875 14.0417 19.6595 13.7292 19.6036 13.4375C19.5477 13.1458 19.4559 12.8583 19.3281 12.575C19.5038 12.5417 19.6795 12.5208 19.8552 12.5125C20.0309 12.5042 20.2146 12.5 20.4062 12.5C21.4924 12.5 22.3628 12.7 23.0177 13.1C23.6726 13.5 24 14.025 24 14.675V16H19.6875ZM12.5 12.25C11.2222 12.25 10.184 12.45 9.38542 12.85C8.58681 13.25 8.1875 13.7583 8.1875 14.375V14.5H16.8125V14.35C16.8125 13.75 16.4172 13.25 15.6266 12.85C14.8359 12.45 13.7937 12.25 12.5 12.25ZM12.5 10C11.7014 10 11.0226 9.70833 10.4635 9.125C9.90451 8.54167 9.625 7.83333 9.625 7C9.625 6.15 9.90451 5.4375 10.4635 4.8625C11.0226 4.2875 11.7014 4 12.5 4C13.3146 4 13.9974 4.2875 14.5484 4.8625C15.0995 5.4375 15.375 6.15 15.375 7C15.375 7.83333 15.0995 8.54167 14.5484 9.125C13.9974 9.70833 13.3146 10 12.5 10ZM12.5 5.5C12.1007 5.5 11.7613 5.64167 11.4818 5.925C11.2023 6.20833 11.0625 6.56667 11.0625 7C11.0625 7.41667 11.2023 7.77083 11.4818 8.0625C11.7613 8.35417 12.1007 8.5 12.5 8.5C12.9153 8.5 13.2587 8.35417 13.5302 8.0625C13.8017 7.77083 13.9375 7.41667 13.9375 7C13.9375 6.56667 13.8017 6.20833 13.5302 5.925C13.2587 5.64167 12.9153 5.5 12.5 5.5Z" fill=""/>
<rect x="1" y="18" width="23" height="2" fill=""/>
</svg>
